<svg width="60" height="61" viewBox="0 0 60 61" fill="none" xmlns="http://www.w3.org/2000/svg">
<path fill-rule="evenodd" clip-rule="evenodd" d="M47.8792 30.5C47.8792 40.165 40.0441 48 30.3792 48C20.7142 48 12.8792 40.165 12.8792 30.5C12.8792 20.835 20.7142 13 30.3792 13C40.0441 13 47.8792 20.835 47.8792 30.5ZM28.3238 45.9658V38.7111H24.4655C24.4103 38.7111 24.3655 38.6663 24.3655 38.6111V33.6146C24.3655 33.5594 24.4103 33.5146 24.4655 33.5146H28.3238V30.7616C28.3238 26.2711 32.8814 24.6829 34.9099 24.6829H37.8294C37.8846 24.6829 37.9294 24.7276 37.9294 24.7829V29.2432C37.9294 29.2985 37.8846 29.3432 37.8294 29.3432H36.0112C35.2613 29.3432 33.4836 30.0362 33.4836 31.3708V33.5146H37.829C37.8888 33.5146 37.9353 33.5668 37.9283 33.6262L37.3438 38.6227C37.3379 38.6731 37.2952 38.7111 37.2445 38.7111H33.4836V45.7911C40.612 44.3517 45.9791 38.0526 45.9791 30.5C45.9791 21.8844 38.9948 14.9 30.3792 14.9C21.7635 14.9 14.7792 21.8844 14.7792 30.5C14.7792 38.4189 20.6795 44.9597 28.3238 45.9658ZM29.9238 45.9434V37.1111H25.9655V35.1146H29.9238V30.7616C29.9238 29.1524 30.7053 28.0842 31.763 27.3564C32.8836 26.5855 34.2126 26.2829 34.9099 26.2829H36.3294V27.7432C35.3591 27.7432 34.44 27.9804 33.6115 28.504C32.8608 28.9783 31.8836 29.9118 31.8836 31.3708V35.1146H36.1433L35.9097 37.1111H31.8836V45.9434H29.9238Z" fill="#343A32"/>
</svg>
