<svg width="60" height="61" viewBox="0 0 60 61" fill="none" xmlns="http://www.w3.org/2000/svg">
<path fill-rule="evenodd" clip-rule="evenodd" d="M30 37.5C33.866 37.5 37 34.366 37 30.5C37 26.634 33.866 23.5 30 23.5C26.134 23.5 23 26.634 23 30.5C23 34.366 26.134 37.5 30 37.5ZM30 35.5C32.7614 35.5 35 33.2614 35 30.5C35 27.7386 32.7614 25.5 30 25.5C27.2386 25.5 25 27.7386 25 30.5C25 33.2614 27.2386 35.5 30 35.5Z" fill="#343A32"/>
<path d="M39 23.5C39.5523 23.5 40 23.0523 40 22.5C40 21.9477 39.5523 21.5 39 21.5C38.4477 21.5 38 21.9477 38 22.5C38 23.0523 38.4477 23.5 39 23.5Z" fill="#343A32"/>
<path fill-rule="evenodd" clip-rule="evenodd" d="M23 14.5C18.0294 14.5 14 18.5294 14 23.5L14 37.5C14 42.4706 18.0294 46.5 23 46.5H37C41.9706 46.5 46 42.4706 46 37.5V23.5C46 18.5294 41.9706 14.5 37 14.5L23 14.5ZM37 16.5H23C19.134 16.5 16 19.634 16 23.5V37.5C16 41.366 19.134 44.5 23 44.5H37C40.866 44.5 44 41.366 44 37.5V23.5C44 19.634 40.866 16.5 37 16.5Z" fill="#343A32"/>
</svg>
