<svg width="40" height="40" viewBox="0 0 40 40" fill="none" xmlns="http://www.w3.org/2000/svg">
<g filter="url(#filter0_d_28_152)">
<path d="M4 32L6.2603 23.7834C4.86606 21.3786 4.13269 18.6506 4.13371 15.8559C4.1373 7.11301 11.2845 0 20.067 0C24.3289 0.00178496 28.3292 1.65311 31.3375 4.65029C34.3455 7.64747 36.0015 11.6315 36 15.8687C35.9962 24.6113 28.8479 31.7254 20.067 31.7254C20.0665 31.7254 20.0672 31.7254 20.067 31.7254H20.0601C17.3935 31.7244 14.7736 31.0586 12.4464 29.7951L4 32ZM12.8376 26.9246L13.3214 27.21C15.3543 28.411 17.685 29.0462 20.0619 29.0474H20.067C27.3658 29.0474 33.3065 23.1347 33.3096 15.8677C33.3109 12.346 31.9348 9.03438 29.4345 6.54336C26.934 4.05234 23.6093 2.67971 20.0718 2.67818C12.7671 2.67818 6.82666 8.59018 6.82384 15.8569C6.82281 18.3472 7.52263 20.7722 8.84848 22.8708L9.16355 23.3695L7.8254 28.2327L12.8376 26.9246Z" fill="#DD949F"/>
<path fill-rule="evenodd" clip-rule="evenodd" d="M16.0845 9.22706C15.7864 8.56713 15.4723 8.55387 15.1885 8.5424C14.9564 8.53245 14.6908 8.53296 14.4257 8.53296C14.1603 8.53296 13.7289 8.63241 13.3642 9.02893C12.9992 9.42544 11.9705 10.3842 11.9705 12.3342C11.9705 14.2844 13.3972 16.1685 13.5963 16.4332C13.7953 16.6976 16.3504 20.827 20.3969 22.4156C23.7599 23.736 24.4441 23.4733 25.1741 23.4073C25.9041 23.3412 27.5294 22.4485 27.8611 21.5231C28.1931 20.5978 28.1931 19.8047 28.0935 19.6387C27.9938 19.4737 27.7284 19.3745 27.3304 19.1764C26.9323 18.9783 24.9751 18.0193 24.61 17.8872C24.245 17.7548 23.9797 17.689 23.7143 18.0858C23.4487 18.4821 22.6863 19.3745 22.454 19.6387C22.2217 19.9037 21.9894 19.9368 21.5913 19.7384C21.1932 19.5398 19.9109 19.1216 18.3899 17.7714C17.2065 16.7211 16.4073 15.4237 16.1749 15.0269C15.9429 14.6306 16.1711 14.4348 16.3499 14.2183C16.6719 13.8284 17.2121 13.1274 17.3448 12.8633C17.4775 12.5986 17.4111 12.3673 17.3118 12.1689C17.2121 11.9708 16.4383 10.0109 16.0845 9.22706Z" fill="#DD949F"/>
</g>
<defs>
<filter id="filter0_d_28_152" x="0" y="0" width="40" height="40" filterUnits="userSpaceOnUse" color-interpolation-filters="sRGB">
<feFlood flood-opacity="0" result="BackgroundImageFix"/>
<feColorMatrix in="SourceAlpha" type="matrix" values="0 0 0 0 0 0 0 0 0 0 0 0 0 0 0 0 0 0 127 0" result="hardAlpha"/>
<feOffset dy="4"/>
<feGaussianBlur stdDeviation="2"/>
<feComposite in2="hardAlpha" operator="out"/>
<feColorMatrix type="matrix" values="0 0 0 0 0 0 0 0 0 0 0 0 0 0 0 0 0 0 0.25 0"/>
<feBlend mode="normal" in2="BackgroundImageFix" result="effect1_dropShadow_28_152"/>
<feBlend mode="normal" in="SourceGraphic" in2="effect1_dropShadow_28_152" result="shape"/>
</filter>
</defs>
</svg>
